<?xml version="1.0" standalone="no"?>
<!DOCTYPE svg PUBLIC "-//W3C//DTD SVG 20010904//EN"
 "http://www.w3.org/TR/2001/REC-SVG-20010904/DTD/svg10.dtd">
<svg version="1.0" xmlns="http://www.w3.org/2000/svg"
 width="333.000000pt" height="333.000000pt" viewBox="0 0 333.000000 333.000000"
 preserveAspectRatio="xMidYMid meet">
<metadata>
Created by potrace 1.11, written by Peter Selinger 2001-2013
</metadata>
<g transform="translate(0.000000,333.000000) scale(0.100000,-0.100000)"
fill="#000000" stroke="none">
<path d="M1584 2370 c-3 -8 -8 -67 -11 -130 -3 -87 -1 -111 7 -97 16 24 46 6
65 -40 24 -57 5 -106 -63 -170 -31 -28 -58 -50 -61 -48 -2 3 -16 -4 -30 -14
-14 -9 -43 -25 -63 -34 -20 -10 -39 -21 -42 -26 -3 -4 -27 -16 -53 -26 -26
-10 -57 -29 -68 -42 -11 -12 -31 -23 -43 -23 -12 0 -22 -4 -22 -9 0 -5 -15
-14 -32 -21 -58 -21 -119 -54 -140 -77 -12 -13 -32 -23 -45 -23 -13 0 -23 -5
-23 -11 0 -5 -4 -8 -10 -4 -15 9 -38 -37 -38 -78 0 -34 10 -69 49 -169 l10
-26 67 39 67 39 27 -31 c48 -54 188 -75 292 -44 66 20 148 19 308 -5 140 -21
165 -23 156 -15 -8 8 -102 30 -240 56 -71 13 -128 27 -128 31 0 4 -7 8 -16 8
-12 0 -10 10 13 53 35 65 50 68 181 33 185 -48 357 -77 601 -102 87 -8 154
-20 167 -29 21 -14 49 -99 38 -117 -3 -4 -45 -6 -94 -5 -49 1 -86 -1 -82 -4 4
-3 40 -16 80 -29 57 -18 84 -35 122 -71 56 -54 112 -72 227 -73 71 -1 73 0
113 39 73 72 119 171 140 305 7 41 16 95 20 120 6 29 5 47 -2 51 -6 4 -8 37
-5 90 3 46 3 72 1 57 -6 -32 -21 -39 -54 -25 -14 5 -38 11 -55 12 -16 1 -52 7
-80 14 -27 7 -79 15 -115 18 -36 3 -72 11 -80 18 -32 26 -49 25 -64 -4 -8 -15
-29 -34 -46 -41 -16 -7 -30 -16 -30 -21 0 -5 -9 -9 -20 -9 -11 0 -20 -4 -20
-10 0 -15 -44 -12 -106 6 -48 14 -53 18 -42 32 12 14 9 15 -22 9 -32 -7 -33
-6 -15 7 20 15 20 15 -2 16 -13 0 -25 -1 -27 -2 -2 -2 -12 4 -22 14 -11 9 -38
22 -61 29 -24 7 -43 16 -43 21 0 4 4 8 8 8 5 0 27 16 50 36 34 29 45 48 61
102 28 95 34 152 19 152 -7 0 -24 13 -38 29 -13 17 -28 27 -33 24 -6 -3 -7 -1
-3 6 4 6 0 18 -8 27 -9 8 -16 21 -16 27 0 7 4 6 10 -3 6 -9 10 -10 10 -3 0 6
-5 15 -11 19 -8 4 -7 9 2 16 11 8 10 8 -4 4 -11 -4 -20 0 -24 12 -4 9 -15 28
-25 41 -10 13 -15 28 -11 34 4 6 0 8 -10 4 -11 -4 -14 -2 -11 7 9 23 -39 46
-72 36 -56 -19 -64 -22 -64 -30 0 -4 -19 -18 -41 -30 l-42 -21 -66 27 c-87 35
-131 57 -131 65 0 4 -9 5 -20 2 -11 -3 -20 -1 -20 4 0 15 -39 10 -46 -7z m191
-540 c3 -5 1 -10 -4 -10 -6 0 -11 5 -11 10 0 6 2 10 4 10 3 0 8 -4 11 -10z"/>
<path d="M1415 2061 c3 -5 -3 -12 -12 -14 -14 -4 -14 -5 -2 -6 8 0 24 6 35 14
18 14 18 14 -4 15 -13 0 -21 -4 -17 -9z"/>
<path d="M1175 1960 c-11 -4 -23 -6 -27 -3 -19 11 -49 -22 -63 -69 -8 -28 -13
-53 -10 -56 6 -7 205 122 205 134 0 2 -11 -1 -25 -6 -26 -10 -46 -10 -55 1 -3
4 -14 3 -25 -1z"/>
<path d="M2635 1820 c-3 -5 -2 -10 4 -10 5 0 13 5 16 10 3 6 2 10 -4 10 -5 0
-13 -4 -16 -10z"/>
<path d="M2610 1785 c-7 -9 -8 -15 -2 -15 5 0 12 7 16 15 3 8 4 15 2 15 -2 0
-9 -7 -16 -15z"/>
<path d="M276 1535 c-26 -40 -20 -87 19 -145 19 -29 35 -56 35 -62 0 -5 4 -7
9 -4 5 3 12 -6 15 -19 4 -14 11 -23 16 -20 10 6 30 -26 30 -49 0 -10 -6 -13
-17 -9 -14 5 -13 1 5 -24 12 -17 22 -35 22 -39 0 -4 6 -15 14 -23 7 -9 17 -27
21 -41 7 -23 7 -24 -11 -10 -18 15 -18 14 -1 -13 23 -36 54 -67 67 -67 6 0 10
-8 10 -18 0 -10 33 -51 74 -90 69 -67 77 -72 117 -72 24 1 58 9 76 18 31 17
112 82 165 133 32 31 47 77 28 89 -10 6 -9 9 1 13 12 5 12 7 0 15 -10 7 -12
22 -8 51 3 26 1 46 -7 54 -6 6 -33 46 -60 87 -64 100 -91 140 -121 173 -14 15
-25 31 -25 36 0 13 -53 21 -65 10 -5 -5 -17 -9 -27 -9 -10 0 -21 -7 -24 -15
-4 -8 -10 -15 -15 -15 -5 0 -29 -14 -54 -32 -39 -28 -49 -31 -65 -20 -11 7
-25 12 -31 12 -11 0 -56 33 -91 66 -9 9 -21 13 -26 10 -5 -3 -12 3 -15 13 -3
14 -11 18 -26 14 -17 -4 -20 -2 -15 11 9 24 -1 19 -20 -9z m161 -335 c3 -16
11 -30 18 -30 21 0 36 -25 24 -37 -8 -8 -21 1 -45 33 -19 25 -32 49 -29 54 12
19 26 10 32 -20z m65 -102 c-6 -6 -16 -7 -22 -3 -9 6 -9 9 1 16 17 10 34 0 21
-13z m32 -37 c3 -5 -1 -11 -9 -15 -9 -3 -15 0 -15 9 0 16 16 20 24 6z"/>
</g>
</svg>
